# Blender v2.79 (sub 0) OBJ File: ''
# www.blender.org
o Cube_Cube.001
v -0.120565 -0.120565 0.120565
v -0.120565 0.120565 0.120565
v -0.120565 -0.120565 -0.120565
v -0.120565 0.120565 -0.120565
v 0.120565 -0.120565 0.120565
v 0.120565 0.120565 0.120565
v 0.120565 -0.120565 -0.120565
v 0.120565 0.120565 -0.120565
v -0.120565 -1.205654 -0.120565
v -0.120565 -1.205654 0.120565
v -0.120565 1.205654 0.120565
v -0.120565 1.205654 -0.120565
v 0.120565 -1.205654 -0.120565
v 0.120565 1.205654 -0.120565
v 0.120565 -1.205654 0.120565
v 0.120565 1.205654 0.120565
v -1.205654 -0.120565 -0.120565
v -1.205654 -0.120565 0.120565
v -1.205654 0.120565 0.120565
v -1.205654 0.120565 -0.120565
v 1.205654 0.120565 -0.120565
v 1.205654 -0.120565 -0.120565
v 1.205654 -0.120565 0.120565
v 1.205654 0.120565 0.120565
v -0.120565 -0.120565 1.205654
v -0.120565 0.120565 1.205654
v -0.120565 0.120565 -1.205654
v -0.120565 -0.120565 -1.205654
v 0.120565 -0.120565 -1.205654
v 0.120565 0.120565 -1.205654
v 0.120565 0.120565 1.205654
v 0.120565 -0.120565 1.205654
vn 0.0000 -1.0000 0.0000
vn 1.0000 0.0000 0.0000
vn 0.0000 1.0000 0.0000
vn 0.0000 0.0000 1.0000
vn -1.0000 0.0000 0.0000
vn 0.0000 0.0000 -1.0000
s off
f 3//1 1//1 18//1 17//1
f 5//2 6//2 31//2 32//2
f 2//3 4//3 20//3 19//3
f 6//3 2//3 26//3 31//3
f 2//4 6//4 16//4 11//4
f 4//5 2//5 11//5 12//5
f 9//1 13//1 15//1 10//1
f 14//3 12//3 11//3 16//3
f 1//5 3//5 9//5 10//5
f 7//2 5//2 15//2 13//2
f 8//6 4//6 12//6 14//6
f 5//4 1//4 10//4 15//4
f 6//2 8//2 14//2 16//2
f 3//6 7//6 13//6 9//6
f 18//5 19//5 20//5 17//5
f 22//2 21//2 24//2 23//2
f 6//4 5//4 23//4 24//4
f 5//1 7//1 22//1 23//1
f 4//6 3//6 17//6 20//6
f 1//4 2//4 19//4 18//4
f 8//3 6//3 24//3 21//3
f 7//6 8//6 21//6 22//6
f 28//6 27//6 30//6 29//6
f 32//4 31//4 26//4 25//4
f 4//3 8//3 30//3 27//3
f 3//5 4//5 27//5 28//5
f 2//5 1//5 25//5 26//5
f 1//1 5//1 32//1 25//1
f 8//2 7//2 29//2 30//2
f 7//1 3//1 28//1 29//1
