# Blender v2.79 (sub 0) OBJ File: 'seabase.blend'
# www.blender.org
mtllib deepsubmergence.seabasewindows.mtl
o Plane
v 1.747318 1.788084 -2.928492
v 1.747318 1.788084 -3.160025
v 1.747318 2.176037 -2.928492
v 1.747318 2.176037 -3.160025
v 1.747318 1.788084 -3.838494
v 1.747318 1.788084 -4.070027
v 1.747318 2.176037 -3.838494
v 1.747318 2.176037 -4.070027
v 0.785190 1.788085 -4.739402
v 0.553657 1.788085 -4.739402
v 0.785190 2.176037 -4.739402
v 0.553657 2.176037 -4.739402
v -0.608030 1.788085 -4.739402
v -0.839563 1.788085 -4.739402
v -0.608030 2.176037 -4.739402
v -0.839563 2.176037 -4.739402
v -1.784309 1.788085 -3.654474
v -1.784309 1.788085 -3.422940
v -1.784309 2.176037 -3.654474
v -1.784309 2.176037 -3.422940
v -3.694985 1.788085 -1.515775
v -3.926518 1.788085 -1.515775
v -3.694985 2.176037 -1.515775
v -3.926518 2.176037 -1.515775
v -5.060206 1.788085 -0.430847
v -5.060206 1.788085 -0.199314
v -5.060206 2.176037 -0.430847
v -5.060206 2.176037 -0.199314
v -4.188599 1.788085 1.031892
v -3.957066 1.788085 1.031892
v -4.188599 2.176037 1.031892
v -3.957066 2.176037 1.031892
v -2.303310 1.944171 -2.114399
v -2.460004 1.944171 -1.943946
v -2.303310 2.213325 -2.114399
v -2.460004 2.213325 -1.943946
v 1.636115 1.944172 -1.834690
v 1.503569 1.944172 -2.024528
v 1.636115 2.213326 -1.834690
v 1.503569 2.213326 -2.024528
v 2.293601 1.944172 -0.900550
v 2.161054 1.944172 -1.090389
v 2.293601 2.213326 -0.900550
v 2.161054 2.213326 -1.090389
v 3.728857 1.944172 -0.260734
v 3.497324 1.944172 -0.261045
v 3.728857 2.213326 -0.260734
v 3.497324 2.213326 -0.261045
v 3.497324 1.944172 0.876670
v 3.728857 1.944172 0.876981
v 3.497324 2.213326 0.876670
v 3.728857 2.213326 0.876981
v 2.039627 1.944172 0.876670
v 2.271159 1.944172 0.876981
v 2.039627 2.213326 0.876670
v 2.271159 2.213326 0.876981
v -3.151225 1.944172 1.607763
v -2.989986 1.944172 1.773924
v -3.151225 2.213326 1.607763
v -2.989986 2.213326 1.773924
v -1.756591 1.944172 3.077930
v -1.595353 1.944172 3.244091
v -1.756591 2.213326 3.077930
v -1.595352 2.213326 3.244091
v -0.255782 1.944172 4.710389
v -0.094544 1.944172 4.876549
v -0.255782 2.213326 4.710389
v -0.094543 2.213326 4.876549
v 2.005224 1.944172 5.369330
v 2.004934 1.944172 5.137798
v 2.005224 2.213326 5.369330
v 2.004933 2.213326 5.137798
v 1.971691 1.788085 2.316518
v 1.740158 1.788085 2.316518
v 1.971691 2.176038 2.316518
v 1.740158 2.176038 2.316518
v 3.013956 1.788085 3.229701
v 3.013956 1.788085 2.998168
v 3.013956 2.176038 3.229701
v 3.013956 2.176038 2.998168
v 3.013956 1.788085 7.433722
v 3.013956 1.788085 7.202188
v 3.013956 2.176038 7.433722
v 3.013956 2.176038 7.202188
v 1.712516 1.788085 8.081319
v 1.944049 1.788085 8.081319
v 1.712516 2.176037 8.081319
v 1.944049 2.176037 8.081319
v 0.687840 1.788085 7.127857
v 0.687840 1.788085 7.359390
v 0.687840 2.176038 7.127857
v 0.687840 2.176038 7.359390
v -3.994066 2.760494 0.421631
v -3.392986 2.760494 0.421631
v -3.994066 2.760494 -0.958339
v -3.392986 2.760494 -0.958339
v -3.233422 2.760494 0.421631
v -2.632341 2.760494 0.421631
v -3.233422 2.760494 -0.958339
v -2.632342 2.760494 -0.958339
v 4.659806 1.939597 0.478347
v 4.660191 1.653557 0.478347
v 4.659806 1.939597 0.145829
v 4.660191 1.653557 0.145829
v 4.659806 1.876278 0.051716
v 4.660191 1.716876 0.051716
v 4.659806 1.876278 0.578733
v 4.660191 1.716876 0.578733
v 4.395688 1.265238 -2.472940
v 4.559406 1.265549 -2.636658
v 4.225705 1.265238 -2.642922
v 4.389424 1.265549 -2.806640
v 8.174570 1.265238 -2.472940
v 8.338287 1.265549 -2.636658
v 8.004587 1.265238 -2.642922
v 8.168306 1.265549 -2.806640
v 8.174570 1.265238 1.331219
v 8.338287 1.265549 1.167501
v 8.004587 1.265238 1.161237
v 8.168306 1.265549 0.997519
v 4.420965 1.265238 1.331219
v 4.584682 1.265549 1.167501
v 4.250982 1.265238 1.161237
v 4.414701 1.265549 0.997519
vt 0.000100 0.999900
vt 0.999900 0.000100
vt 0.999900 0.999900
vt 0.000100 0.999900
vt 0.999900 0.000100
vt 0.999900 0.999900
vt 0.000100 0.999900
vt 0.999900 0.000100
vt 0.999900 0.999900
vt 0.000100 0.999900
vt 0.999900 0.000100
vt 0.999900 0.999900
vt 0.000100 0.999900
vt 0.999900 0.000100
vt 0.999900 0.999900
vt 0.000100 0.999900
vt 0.999900 0.000100
vt 0.999900 0.999900
vt 0.000100 0.999900
vt 0.999900 0.000100
vt 0.999900 0.999900
vt 0.000100 0.999900
vt 0.999900 0.000100
vt 0.999900 0.999900
vt 0.000100 0.999900
vt 0.999900 0.000100
vt 0.999900 0.999900
vt 0.000100 0.999900
vt 0.999900 0.000100
vt 0.999900 0.999900
vt 0.000100 0.999900
vt 0.999900 0.000100
vt 0.999900 0.999900
vt 0.000100 0.999900
vt 0.999900 0.000100
vt 0.999900 0.999900
vt 0.000100 0.999900
vt 0.999900 0.000100
vt 0.999900 0.999900
vt 0.000100 0.999900
vt 0.999900 0.000100
vt 0.999900 0.999900
vt 0.000100 0.999900
vt 0.999900 0.000100
vt 0.999900 0.999900
vt 0.000100 0.999900
vt 0.999900 0.000100
vt 0.999900 0.999900
vt 0.000100 0.999900
vt 0.999900 0.000100
vt 0.999900 0.999900
vt 0.000100 0.999900
vt 0.999900 0.000100
vt 0.999900 0.999900
vt 0.000100 0.999900
vt 0.999900 0.000100
vt 0.999900 0.999900
vt 0.000100 0.999900
vt 0.999900 0.000100
vt 0.999900 0.999900
vt 0.000100 0.999900
vt 0.999900 0.000100
vt 0.999900 0.999900
vt 0.000100 0.999900
vt 0.999900 0.000100
vt 0.999900 0.999900
vt 0.000100 0.999900
vt 0.999900 0.000100
vt 0.999900 0.999900
vt 0.999900 0.999900
vt 0.000100 0.000100
vt 0.999900 0.000100
vt 0.999900 0.999900
vt 0.000100 0.000100
vt 0.999900 0.000100
vt 0.000100 0.999900
vt 0.999900 0.000100
vt 0.999900 0.999900
vt 0.000100 0.000100
vt 0.999900 0.000100
vt 0.000100 0.999900
vt 0.999900 0.999900
vt 0.000100 0.000100
vt 0.999900 0.000100
vt 0.999900 0.999900
vt 0.000100 0.000100
vt 0.999900 0.000100
vt 0.999900 0.999900
vt 0.000100 0.000100
vt 0.999900 0.000100
vt 0.000100 0.999900
vt 0.999900 0.000100
vt 0.999900 0.999900
vt 0.000100 0.000100
vt 0.000100 0.000100
vt 0.000100 0.000100
vt 0.000100 0.000100
vt 0.000100 0.000100
vt 0.000100 0.000100
vt 0.000100 0.000100
vt 0.000100 0.000100
vt 0.000100 0.000100
vt 0.000100 0.000100
vt 0.000100 0.000100
vt 0.000100 0.000100
vt 0.000100 0.000100
vt 0.000100 0.000100
vt 0.000100 0.000100
vt 0.000100 0.000100
vt 0.000100 0.000100
vt 0.000100 0.000100
vt 0.000100 0.000100
vt 0.000100 0.000100
vt 0.000100 0.000100
vt 0.000100 0.000100
vt 0.000100 0.000100
vt 0.000100 0.999900
vt 0.000100 0.999900
vt 0.000100 0.000100
vt 0.999900 0.999900
vt 0.000100 0.999900
vt 0.000100 0.999900
vt 0.000100 0.999900
vt 0.000100 0.000100
vn 1.0000 0.0000 0.0000
vn 0.0000 0.0000 -1.0000
vn -1.0000 0.0000 0.0000
vn 0.0000 0.0000 1.0000
vn -0.7362 0.0000 -0.6768
vn 0.8199 0.0000 -0.5725
vn 0.0013 0.0000 -1.0000
vn -0.0013 0.0000 1.0000
vn -0.7177 0.0000 0.6964
vn 1.0000 0.0000 -0.0013
vn 0.0000 1.0000 0.0000
vn 1.0000 0.0013 0.0000
vn 1.0000 0.0013 -0.0009
vn 1.0000 0.0013 -0.0008
vn -0.0009 1.0000 0.0009
vn 1.0000 0.0024 0.0016
vn 1.0000 0.0024 0.0015
usemtl None
s off
f 2/1/1 3/2/1 1/3/1
f 6/4/1 7/5/1 5/6/1
f 10/7/2 11/8/2 9/9/2
f 14/10/2 15/11/2 13/12/2
f 18/13/3 19/14/3 17/15/3
f 22/16/2 23/17/2 21/18/2
f 26/19/3 27/20/3 25/21/3
f 30/22/4 31/23/4 29/24/4
f 34/25/5 35/26/5 33/27/5
f 38/28/6 39/29/6 37/30/6
f 42/31/6 43/32/6 41/33/6
f 46/34/7 47/35/7 45/36/7
f 50/37/8 51/38/8 49/39/8
f 54/40/8 55/41/8 53/42/8
f 58/43/9 59/44/9 57/45/9
f 62/46/9 63/47/9 61/48/9
f 66/49/9 67/50/9 65/51/9
f 70/52/10 71/53/10 69/54/10
f 74/55/2 75/56/2 73/57/2
f 78/58/1 79/59/1 77/60/1
f 82/61/1 83/62/1 81/63/1
f 86/64/4 87/65/4 85/66/4
f 90/67/3 91/68/3 89/69/3
f 93/70/11 96/71/11 95/72/11
f 97/73/11 100/74/11 99/75/11
f 102/76/12 103/77/12 101/78/12
f 104/79/13 105/80/13 103/77/13
f 101/78/14 108/81/14 102/76/14
f 109/82/15 112/83/15 111/84/15
f 113/85/15 116/86/15 115/87/15
f 117/88/15 120/89/15 119/90/15
f 122/91/15 123/92/15 121/93/15
f 2/1/1 4/94/1 3/2/1
f 6/4/1 8/95/1 7/5/1
f 10/7/2 12/96/2 11/8/2
f 14/10/2 16/97/2 15/11/2
f 18/13/3 20/98/3 19/14/3
f 22/16/2 24/99/2 23/17/2
f 26/19/3 28/100/3 27/20/3
f 30/22/4 32/101/4 31/23/4
f 34/25/5 36/102/5 35/26/5
f 38/28/6 40/103/6 39/29/6
f 42/31/6 44/104/6 43/32/6
f 46/34/7 48/105/7 47/35/7
f 50/37/8 52/106/8 51/38/8
f 54/40/8 56/107/8 55/41/8
f 58/43/9 60/108/9 59/44/9
f 62/46/9 64/109/9 63/47/9
f 66/49/9 68/110/9 67/50/9
f 70/52/10 72/111/10 71/53/10
f 74/55/2 76/112/2 75/56/2
f 78/58/1 80/113/1 79/59/1
f 82/61/1 84/114/1 83/62/1
f 86/64/4 88/115/4 87/65/4
f 90/67/3 92/116/3 91/68/3
f 93/70/11 94/117/11 96/71/11
f 97/73/11 98/118/11 100/74/11
f 102/76/12 104/79/12 103/77/12
f 104/79/16 106/119/16 105/80/16
f 101/78/17 107/120/17 108/81/17
f 109/82/15 110/121/15 112/83/15
f 113/85/15 114/122/15 116/86/15
f 117/88/15 118/123/15 120/89/15
f 122/91/15 124/124/15 123/92/15
