# Blender v2.79 (sub 0) OBJ File: 'seabase.blend'
# www.blender.org
mtllib deepsubmergence.seabasewindows.mtl
o Plane
v 1.747318 1.788084 -2.928492
v 1.747318 1.788084 -3.160025
v 1.747318 2.176037 -2.928492
v 1.747318 2.176037 -3.160025
v 1.747318 1.788084 -3.838494
v 1.747318 1.788084 -4.070027
v 1.747318 2.176037 -3.838494
v 1.747318 2.176037 -4.070027
v 0.785190 1.788085 -4.739402
v 0.553657 1.788085 -4.739402
v 0.785190 2.176037 -4.739402
v 0.553657 2.176037 -4.739402
v -0.608030 1.788085 -4.739402
v -0.839563 1.788085 -4.739402
v -0.608030 2.176037 -4.739402
v -0.839563 2.176037 -4.739402
v -1.784309 1.788085 -3.654474
v -1.784309 1.788085 -3.422940
v -1.784309 2.176037 -3.654474
v -1.784309 2.176037 -3.422940
v -3.694985 1.788085 -1.515775
v -3.926518 1.788085 -1.515775
v -3.694985 2.176037 -1.515775
v -3.926518 2.176037 -1.515775
v -5.060206 1.788085 -0.430847
v -5.060206 1.788085 -0.199314
v -5.060206 2.176037 -0.430847
v -5.060206 2.176037 -0.199314
v -4.188599 1.788085 1.031892
v -3.957066 1.788085 1.031892
v -4.188599 2.176037 1.031892
v -3.957066 2.176037 1.031892
v -2.303310 1.944171 -2.114399
v -2.460004 1.944171 -1.943946
v -2.303310 2.213325 -2.114399
v -2.460004 2.213325 -1.943946
v 1.636115 1.944172 -1.834690
v 1.503569 1.944172 -2.024528
v 1.636115 2.213326 -1.834690
v 1.503569 2.213326 -2.024528
v 2.293601 1.944172 -0.900550
v 2.161054 1.944172 -1.090389
v 2.293601 2.213326 -0.900550
v 2.161054 2.213326 -1.090389
v 3.728857 1.944172 -0.260734
v 3.497324 1.944172 -0.261045
v 3.728857 2.213326 -0.260734
v 3.497324 2.213326 -0.261045
v 3.497324 1.944172 0.876670
v 3.728857 1.944172 0.876981
v 3.497324 2.213326 0.876670
v 3.728857 2.213326 0.876981
v 2.039627 1.944172 0.876670
v 2.271159 1.944172 0.876981
v 2.039627 2.213326 0.876670
v 2.271159 2.213326 0.876981
v -3.151225 1.944172 1.607763
v -2.989986 1.944172 1.773924
v -3.151225 2.213326 1.607763
v -2.989986 2.213326 1.773924
v -1.756591 1.944172 3.077930
v -1.595353 1.944172 3.244091
v -1.756591 2.213326 3.077930
v -1.595352 2.213326 3.244091
v -0.255782 1.944172 4.710389
v -0.094544 1.944172 4.876549
v -0.255782 2.213326 4.710389
v -0.094543 2.213326 4.876549
v 2.005224 1.944172 5.369330
v 2.004934 1.944172 5.137798
v 2.005224 2.213326 5.369330
v 2.004933 2.213326 5.137798
v 1.971691 1.788085 2.316518
v 1.740158 1.788085 2.316518
v 1.971691 2.176038 2.316518
v 1.740158 2.176038 2.316518
v 3.013956 1.788085 3.229701
v 3.013956 1.788085 2.998168
v 3.013956 2.176038 3.229701
v 3.013956 2.176038 2.998168
v 3.013956 1.788085 7.433722
v 3.013956 1.788085 7.202188
v 3.013956 2.176038 7.433722
v 3.013956 2.176038 7.202188
v 1.712516 1.788085 8.081319
v 1.944049 1.788085 8.081319
v 1.712516 2.176037 8.081319
v 1.944049 2.176037 8.081319
v 0.687840 1.788085 7.127857
v 0.687840 1.788085 7.359390
v 0.687840 2.176038 7.127857
v 0.687840 2.176038 7.359390
v -3.994066 2.760494 0.421631
v -3.392986 2.760494 0.421631
v -3.994066 2.760494 -0.958339
v -3.392986 2.760494 -0.958339
v -3.233422 2.760494 0.421631
v -2.632341 2.760494 0.421631
v -3.233422 2.760494 -0.958339
v -2.632342 2.760494 -0.958339
v 4.654365 2.472473 0.229083
v 4.654365 2.450537 0.156771
v 4.654365 2.414916 0.090129
v 4.654365 2.366978 0.031716
v 4.654365 2.308565 -0.016222
v 4.654365 2.241922 -0.051843
v 4.654365 2.169611 -0.073779
v 4.654365 2.094409 -0.081186
v 4.395688 1.265238 -2.472940
v 4.559406 1.265549 -2.636658
v 4.225705 1.265238 -2.642922
v 4.389424 1.265549 -2.806640
v 8.174570 1.265238 -2.472940
v 8.338287 1.265549 -2.636658
v 8.004587 1.265238 -2.642922
v 8.168306 1.265549 -2.806640
v 8.174570 1.265238 1.331219
v 8.338287 1.265549 1.167501
v 8.004587 1.265238 1.161237
v 8.168306 1.265549 0.997519
v 4.420965 1.265238 1.331219
v 4.584682 1.265549 1.167501
v 4.250982 1.265238 1.161237
v 4.414701 1.265549 0.997519
v 4.654365 2.479879 0.304284
v 4.654365 2.472473 0.379486
v 4.654365 2.450537 0.451797
v 4.654365 2.414916 0.518440
v 4.654365 2.366978 0.576853
v 4.654365 2.308565 0.624791
v 4.654365 2.241922 0.660412
v 4.654365 2.169611 0.682348
v 4.654365 2.094409 0.689754
v 4.654365 2.019208 0.682348
v 4.654365 1.946896 0.660412
v 4.654365 1.880254 0.624791
v 4.654365 1.821841 0.576853
v 4.654365 1.773903 0.518440
v 4.654365 1.738281 0.451797
v 4.654365 1.716346 0.379485
v 4.654365 1.708939 0.304284
v 4.654365 1.716346 0.229082
v 4.654365 1.738282 0.156771
v 4.654365 1.773903 0.090128
v 4.654365 1.821841 0.031716
v 4.654365 1.880254 -0.016223
v 4.654365 1.946897 -0.051844
v 4.654365 2.019209 -0.073779
v 4.654365 2.094409 0.304284
vt 0.000100 0.999900
vt 0.999900 0.000100
vt 0.999900 0.999900
vt 0.000100 0.999900
vt 0.999900 0.000100
vt 0.999900 0.999900
vt 0.000100 0.999900
vt 0.999900 0.000100
vt 0.999900 0.999900
vt 0.000100 0.999900
vt 0.999900 0.000100
vt 0.999900 0.999900
vt 0.000100 0.999900
vt 0.999900 0.000100
vt 0.999900 0.999900
vt 0.000100 0.999900
vt 0.999900 0.000100
vt 0.999900 0.999900
vt 0.000100 0.999900
vt 0.999900 0.000100
vt 0.999900 0.999900
vt 0.000100 0.999900
vt 0.999900 0.000100
vt 0.999900 0.999900
vt 0.000100 0.999900
vt 0.999900 0.000100
vt 0.999900 0.999900
vt 0.000100 0.999900
vt 0.999900 0.000100
vt 0.999900 0.999900
vt 0.000100 0.999900
vt 0.999900 0.000100
vt 0.999900 0.999900
vt 0.000100 0.999900
vt 0.999900 0.000100
vt 0.999900 0.999900
vt 0.000100 0.999900
vt 0.999900 0.000100
vt 0.999900 0.999900
vt 0.000100 0.999900
vt 0.999900 0.000100
vt 0.999900 0.999900
vt 0.000100 0.999900
vt 0.999900 0.000100
vt 0.999900 0.999900
vt 0.000100 0.999900
vt 0.999900 0.000100
vt 0.999900 0.999900
vt 0.000100 0.999900
vt 0.999900 0.000100
vt 0.999900 0.999900
vt 0.000100 0.999900
vt 0.999900 0.000100
vt 0.999900 0.999900
vt 0.000100 0.999900
vt 0.999900 0.000100
vt 0.999900 0.999900
vt 0.000100 0.999900
vt 0.999900 0.000100
vt 0.999900 0.999900
vt 0.000100 0.999900
vt 0.999900 0.000100
vt 0.999900 0.999900
vt 0.000100 0.999900
vt 0.999900 0.000100
vt 0.999900 0.999900
vt 0.000100 0.999900
vt 0.999900 0.000100
vt 0.999900 0.999900
vt 0.999900 0.999900
vt 0.000100 0.000100
vt 0.999900 0.000100
vt 0.999900 0.999900
vt 0.000100 0.000100
vt 0.999900 0.000100
vt 0.999900 0.999900
vt 0.000100 0.000100
vt 0.999900 0.000100
vt 0.999900 0.999900
vt 0.000100 0.000100
vt 0.999900 0.000100
vt 0.999900 0.999900
vt 0.000100 0.000100
vt 0.999900 0.000100
vt 0.000100 0.999900
vt 0.999900 0.000100
vt 0.999900 0.999900
vt 0.980689 0.354185
vt 0.500000 0.500000
vt 0.943006 0.263209
vt 0.354185 0.980689
vt 0.450764 0.999900
vt 0.019311 0.354185
vt 0.000100 0.450764
vt 0.999900 0.450765
vt 0.549236 0.999900
vt 0.056994 0.263209
vt 0.999900 0.549237
vt 0.645816 0.980689
vt 0.111702 0.181332
vt 0.980689 0.645816
vt 0.736791 0.943006
vt 0.181332 0.111702
vt 0.943005 0.736792
vt 0.818667 0.888298
vt 0.263208 0.056994
vt 0.888298 0.818668
vt 0.354184 0.019311
vt 0.450764 0.000100
vt 0.549236 0.000100
vt 0.645815 0.019311
vt 0.111702 0.818668
vt 0.181332 0.888298
vt 0.736791 0.056994
vt 0.056994 0.736792
vt 0.818668 0.111702
vt 0.019311 0.645816
vt 0.888298 0.181332
vt 0.263209 0.943006
vt 0.000100 0.549236
vt 0.000100 0.000100
vt 0.000100 0.000100
vt 0.000100 0.000100
vt 0.000100 0.000100
vt 0.000100 0.000100
vt 0.000100 0.000100
vt 0.000100 0.000100
vt 0.000100 0.000100
vt 0.000100 0.000100
vt 0.000100 0.000100
vt 0.000100 0.000100
vt 0.000100 0.000100
vt 0.000100 0.000100
vt 0.000100 0.000100
vt 0.000100 0.000100
vt 0.000100 0.000100
vt 0.000100 0.000100
vt 0.000100 0.000100
vt 0.000100 0.000100
vt 0.000100 0.000100
vt 0.000100 0.000100
vt 0.000100 0.000100
vt 0.000100 0.000100
vt 0.000100 0.999900
vt 0.000100 0.999900
vt 0.000100 0.999900
vt 0.000100 0.999900
vt 0.000100 0.999900
vt 0.000100 0.000100
vn 1.0000 0.0000 0.0000
vn 0.0000 0.0000 -1.0000
vn -1.0000 0.0000 0.0000
vn 0.0000 0.0000 1.0000
vn -0.7362 0.0000 -0.6768
vn 0.8199 0.0000 -0.5725
vn 0.0013 0.0000 -1.0000
vn -0.0013 0.0000 1.0000
vn -0.7177 0.0000 0.6964
vn 1.0000 0.0000 -0.0013
vn 0.0000 1.0000 0.0000
vn -0.0009 1.0000 0.0009
usemtl None
s off
f 2/1/1 3/2/1 1/3/1
f 6/4/1 7/5/1 5/6/1
f 10/7/2 11/8/2 9/9/2
f 14/10/2 15/11/2 13/12/2
f 18/13/3 19/14/3 17/15/3
f 22/16/2 23/17/2 21/18/2
f 26/19/3 27/20/3 25/21/3
f 30/22/4 31/23/4 29/24/4
f 34/25/5 35/26/5 33/27/5
f 38/28/6 39/29/6 37/30/6
f 42/31/6 43/32/6 41/33/6
f 46/34/7 47/35/7 45/36/7
f 50/37/8 51/38/8 49/39/8
f 54/40/8 55/41/8 53/42/8
f 58/43/9 59/44/9 57/45/9
f 62/46/9 63/47/9 61/48/9
f 66/49/9 67/50/9 65/51/9
f 70/52/10 71/53/10 69/54/10
f 74/55/2 75/56/2 73/57/2
f 78/58/1 79/59/1 77/60/1
f 82/61/1 83/62/1 81/63/1
f 86/64/4 87/65/4 85/66/4
f 90/67/3 91/68/3 89/69/3
f 93/70/11 96/71/11 95/72/11
f 97/73/11 100/74/11 99/75/11
f 109/76/12 112/77/12 111/78/12
f 113/79/12 116/80/12 115/81/12
f 117/82/12 120/83/12 119/84/12
f 122/85/12 123/86/12 121/87/12
f 144/88/1 149/89/1 143/90/1
f 102/91/1 149/89/1 103/92/1
f 131/93/1 149/89/1 130/94/1
f 145/95/1 149/89/1 144/88/1
f 103/92/1 149/89/1 104/96/1
f 132/97/1 149/89/1 131/93/1
f 146/98/1 149/89/1 145/95/1
f 104/96/1 149/89/1 105/99/1
f 133/100/1 149/89/1 132/97/1
f 147/101/1 149/89/1 146/98/1
f 105/99/1 149/89/1 106/102/1
f 134/103/1 149/89/1 133/100/1
f 148/104/1 149/89/1 147/101/1
f 106/102/1 149/89/1 107/105/1
f 135/106/1 149/89/1 134/103/1
f 108/107/1 149/89/1 148/104/1
f 107/105/1 149/89/1 108/107/1
f 136/108/1 149/89/1 135/106/1
f 137/109/1 149/89/1 136/108/1
f 138/110/1 149/89/1 137/109/1
f 139/111/1 149/89/1 138/110/1
f 126/112/1 149/89/1 125/113/1
f 140/114/1 149/89/1 139/111/1
f 127/115/1 149/89/1 126/112/1
f 141/116/1 149/89/1 140/114/1
f 128/117/1 149/89/1 127/115/1
f 142/118/1 149/89/1 141/116/1
f 125/113/1 149/89/1 101/119/1
f 129/120/1 149/89/1 128/117/1
f 143/90/1 149/89/1 142/118/1
f 101/119/1 149/89/1 102/91/1
f 130/94/1 149/89/1 129/120/1
f 2/1/1 4/121/1 3/2/1
f 6/4/1 8/122/1 7/5/1
f 10/7/2 12/123/2 11/8/2
f 14/10/2 16/124/2 15/11/2
f 18/13/3 20/125/3 19/14/3
f 22/16/2 24/126/2 23/17/2
f 26/19/3 28/127/3 27/20/3
f 30/22/4 32/128/4 31/23/4
f 34/25/5 36/129/5 35/26/5
f 38/28/6 40/130/6 39/29/6
f 42/31/6 44/131/6 43/32/6
f 46/34/7 48/132/7 47/35/7
f 50/37/8 52/133/8 51/38/8
f 54/40/8 56/134/8 55/41/8
f 58/43/9 60/135/9 59/44/9
f 62/46/9 64/136/9 63/47/9
f 66/49/9 68/137/9 67/50/9
f 70/52/10 72/138/10 71/53/10
f 74/55/2 76/139/2 75/56/2
f 78/58/1 80/140/1 79/59/1
f 82/61/1 84/141/1 83/62/1
f 86/64/4 88/142/4 87/65/4
f 90/67/3 92/143/3 91/68/3
f 93/70/11 94/144/11 96/71/11
f 97/73/11 98/145/11 100/74/11
f 109/76/12 110/146/12 112/77/12
f 113/79/12 114/147/12 116/80/12
f 117/82/12 118/148/12 120/83/12
f 122/85/12 124/149/12 123/86/12
