# Blender v2.79 (sub 0) OBJ File: 'submarine.blend'
# www.blender.org
o Cube.001_Cube
v -0.017046 0.005420 -2.486566
v -0.054280 0.073057 -2.510399
v -0.017046 0.005420 -2.513434
v -0.046929 0.073057 -2.535647
v 0.017046 0.005420 -2.486566
v 0.046929 0.073057 -2.464353
v 0.017046 0.005420 -2.513434
v 0.054280 0.073057 -2.489601
v -0.067669 0.151690 -2.553438
v -0.053852 0.151690 -2.574021
v 0.067669 0.151690 -2.446562
v 0.053852 0.151690 -2.425979
v -0.050790 0.219576 -2.567248
v -0.033182 0.219576 -2.582659
v 0.050790 0.219576 -2.432752
v 0.033182 0.219576 -2.417341
v -0.024829 0.259741 -2.534769
v -0.005348 0.259741 -2.546124
v 0.024829 0.259741 -2.465231
v 0.005348 0.259741 -2.453876
v 0.006805 -0.016542 -2.486566
v -0.021074 -0.088540 -2.510399
v 0.006805 -0.016542 -2.513434
v -0.025799 -0.082909 -2.535647
v -0.015109 0.009575 -2.486566
v -0.086130 -0.011010 -2.464353
v -0.015109 0.009575 -2.513434
v -0.090855 -0.005378 -2.489601
v -0.072705 -0.149341 -2.553438
v -0.081586 -0.138757 -2.574021
v -0.159698 -0.045667 -2.446562
v -0.150817 -0.056251 -2.425979
v -0.135558 -0.180048 -2.567248
v -0.146876 -0.166559 -2.582659
v -0.200852 -0.102233 -2.432752
v -0.189534 -0.115721 -2.417341
v -0.183014 -0.185978 -2.534769
v -0.195536 -0.171055 -2.546124
v -0.214933 -0.147938 -2.465231
v -0.202411 -0.162861 -2.453876
v 0.010923 0.014165 -2.486565
v 0.087215 0.026020 -2.510399
v 0.010923 0.014165 -2.513434
v 0.084701 0.019112 -2.535647
v -0.000737 -0.017872 -2.486565
v 0.052600 -0.069085 -2.464352
v -0.000737 -0.017872 -2.513434
v 0.050085 -0.075993 -2.489601
v 0.165686 0.011707 -2.553438
v 0.160960 -0.001277 -2.574021
v 0.119398 -0.115469 -2.446561
v 0.124124 -0.102485 -2.425978
v 0.223705 -0.027372 -2.567247
v 0.217682 -0.043918 -2.582659
v 0.188962 -0.122826 -2.432752
v 0.194984 -0.106280 -2.417341
v 0.252569 -0.065505 -2.534769
v 0.245906 -0.083811 -2.546124
v 0.235585 -0.112168 -2.465231
v 0.242248 -0.093862 -2.453876
v 0.000000 -0.065615 -2.443852
v 0.000000 -0.065615 -2.575083
v 0.056825 -0.032808 -2.443852
v 0.056825 -0.032808 -2.575083
v 0.056825 0.032808 -2.443852
v 0.056825 0.032808 -2.575083
v -0.000000 0.065615 -2.443852
v -0.000000 0.065615 -2.575083
v -0.056825 0.032808 -2.443852
v -0.056825 0.032808 -2.575083
v -0.056825 -0.032808 -2.443852
v -0.056825 -0.032808 -2.575083
v 0.034512 -0.019925 -2.628330
v 0.000000 -0.039851 -2.628330
v 0.034512 0.019925 -2.628330
v -0.000000 0.039851 -2.628330
v -0.034512 0.019925 -2.628330
v -0.034512 -0.019925 -2.628330
v 0.000000 -0.065615 -1.845371
v 0.056825 -0.032808 -1.845371
v 0.056825 0.032808 -1.845371
v -0.000000 0.065615 -1.845371
v -0.056825 0.032808 -1.845371
v -0.056825 -0.032808 -1.845371
vt 0.522587 0.399106
vt 0.518400 0.311329
vt 0.550593 0.312216
vt 0.768520 0.084440
vt 0.690381 0.000652
vt 0.731343 0.000000
vt 0.523909 0.092077
vt 0.528244 0.000000
vt 0.560394 0.002421
vt 0.760633 0.833494
vt 0.684956 0.748072
vt 0.725919 0.748721
vt 0.798380 0.212858
vt 0.830554 0.255604
vt 0.798380 0.255444
vt 0.638934 0.832402
vt 0.767597 0.931292
vt 0.621319 0.931292
vt 0.442198 0.182513
vt 0.445709 0.265498
vt 0.428750 0.259856
vt 0.646851 0.085536
vt 0.778337 0.183370
vt 0.632145 0.183370
vt 0.494317 0.088026
vt 0.465664 0.187706
vt 0.491724 0.397623
vt 0.469175 0.496975
vt 0.443366 0.495074
vt 0.944508 0.969825
vt 0.924239 0.910570
vt 0.951257 0.911935
vt 0.448677 0.579721
vt 0.428750 0.577655
vt 0.621319 0.577240
vt 0.632145 0.258722
vt 0.938774 0.804752
vt 0.923997 0.748072
vt 0.911755 0.803387
vt 0.578346 0.628608
vt 0.483928 0.628608
vt 0.583216 0.311329
vt 0.483885 0.311329
vt 0.903032 0.413314
vt 0.939131 0.500826
vt 0.909146 0.513140
vt 0.906651 0.650003
vt 0.830851 0.564895
vt 0.871813 0.565285
vt 0.950208 0.416125
vt 0.991139 0.501559
vt 0.961836 0.515578
vt 0.903165 0.832597
vt 0.825909 0.748442
vt 0.866871 0.748072
vt 0.920222 0.537200
vt 0.782231 0.833218
vt 0.911755 0.931296
vt 0.767597 0.931296
vt 0.774057 0.272274
vt 0.753654 0.190027
vt 0.774057 0.183370
vt 0.785698 0.649347
vt 0.913553 0.748041
vt 0.769345 0.748041
vt 0.980314 0.407924
vt 0.963861 0.312724
vt 0.991139 0.311329
vt 0.933598 0.406930
vt 0.922748 0.311329
vt 0.950208 0.311646
vt 0.938792 0.564895
vt 0.936288 0.633628
vt 0.913554 0.632666
vt 0.590345 0.855039
vt 0.590182 0.920797
vt 0.567933 0.931464
vt 1.000000 0.046120
vt 0.928192 0.189642
vt 0.967383 0.000000
vt 0.903032 0.357082
vt 0.830306 0.501389
vt 0.868821 0.311329
vt 0.939819 0.736094
vt 0.617762 0.986771
vt 0.599827 1.000000
vt 0.901728 0.118464
vt 0.932939 0.021655
vt 0.803023 0.430539
vt 0.833696 0.333373
vt 0.951257 0.861234
vt 0.988256 0.949179
vt 0.958297 0.961604
vt 0.568446 0.713558
vt 0.491714 0.628608
vt 0.532676 0.628869
vt 0.722602 0.183370
vt 0.746476 0.256600
vt 0.715079 0.264061
vt 0.759798 0.649444
vt 0.682046 0.565179
vt 0.723008 0.564895
vt 0.753654 0.294881
vt 0.722256 0.302342
vt 0.637466 0.649921
vt 0.769345 0.748072
vt 0.621319 0.748072
vt 0.684536 0.348051
vt 0.638023 0.415118
vt 0.621319 0.408596
vt 0.446101 0.713118
vt 0.576810 0.811712
vt 0.428750 0.811712
vt 0.778916 0.311329
vt 0.705374 0.360043
vt 0.980273 0.852945
vt 0.963681 0.751226
vt 0.988256 0.748072
vt 0.614225 0.848797
vt 0.590833 0.797298
vt 0.617762 0.798619
vt 0.798380 0.301537
vt 0.778337 0.219060
vt 0.798380 0.212858
vt 0.901728 0.037019
vt 0.817972 0.194527
vt 0.842238 0.000000
vt 0.761805 0.564895
vt 0.603740 0.692196
vt 0.590509 0.628608
vt 0.576810 0.690875
vt 0.778337 0.131249
vt 0.797663 0.029431
vt 0.701860 0.561723
vt 0.632769 0.486020
vt 0.070433 0.071341
vt 0.136339 0.231221
vt 0.070433 0.234966
vt 0.351459 0.068818
vt 0.428750 0.231818
vt 0.351459 0.232744
vt 0.272801 0.911906
vt 0.206098 0.750051
vt 0.272801 0.747909
vt 0.206098 0.914048
vt 0.136339 0.748179
vt 0.136339 0.912175
vt 0.204898 0.979014
vt 0.162531 0.977876
vt 0.272801 0.068355
vt 0.351459 0.232534
vt 0.272801 0.232132
vt 0.000000 0.068274
vt 0.000000 0.231899
vt 0.272801 0.979044
vt 0.632145 0.258163
vt 0.632145 0.208304
vt 0.673612 0.183370
vt 0.408277 0.000000
vt 0.428750 0.067893
vt 0.337862 0.000244
vt 0.351459 0.068757
vt 0.136339 0.067596
vt 0.068655 0.002275
vt 0.108683 0.000000
vt 0.565314 0.852758
vt 0.497032 0.975888
vt 0.428750 0.852754
vt 0.070433 0.981182
vt 0.272801 0.000000
vt 0.000000 0.978115
vt 0.206098 0.002142
vt 0.351459 0.980331
vt 0.830554 0.213018
vt 0.917247 0.962878
vt 0.611805 0.490432
vt 0.628401 0.169836
vt 0.951257 0.755019
vt 0.950208 0.524885
vt 0.757952 0.277618
vt 0.962554 0.571249
vt 0.617762 0.848797
vt 1.000000 0.225664
vt 0.903032 0.536549
vt 0.962554 0.737056
vt 0.753654 0.184615
vt 0.803023 0.329285
vt 0.586972 0.841933
vt 0.782766 0.306302
vt 0.901728 0.212858
vt 0.803023 0.504345
vt 0.617762 0.635472
vt 0.351459 0.979445
vt 0.715079 0.208296
vt 0.715079 0.258156
vt 0.673612 0.283089
vt 0.361335 0.000562
vt 0.290090 0.000000
vt 0.245410 0.977713
vt 0.025879 0.000412
vt 0.497032 0.811712
vt 0.565314 0.934846
vt 0.428750 0.934842
vt 0.136339 0.977437
vt 0.136339 0.000270
vt 0.428750 0.979406
vn -0.9074 -0.1944 0.3726
vn -0.4086 -0.7706 -0.4890
vn -0.4772 -0.6623 0.5776
vn -0.4360 -0.4393 -0.7855
vn 0.4772 -0.6623 -0.5776
vn 0.9074 -0.1944 -0.3726
vn 0.4086 -0.7706 0.4890
vn 0.4360 -0.4393 0.7855
vn 0.2002 -0.2098 0.9570
vn -0.9999 0.0063 -0.0123
vn 0.8734 0.4155 0.2539
vn -0.1115 0.2635 0.9582
vn -0.2002 -0.2098 -0.9570
vn 0.9999 0.0063 0.0123
vn 0.5855 0.8098 0.0368
vn -0.4710 0.6677 0.5765
vn -0.8734 0.4155 -0.2539
vn 0.1115 0.2635 -0.9582
vn -0.5855 0.8098 -0.0368
vn 0.4710 0.6677 -0.5765
vn 0.7322 -0.5701 0.3726
vn 0.8530 0.1823 -0.4890
vn 0.8141 0.0601 0.5776
vn 0.6167 -0.0516 -0.7855
vn 0.2006 0.7913 -0.5776
vn -0.4343 0.8201 -0.3726
vn 0.3276 0.8084 0.4890
vn 0.0563 0.6163 0.7855
vn 0.0320 0.2882 0.9570
vn 0.6378 -0.7700 -0.0123
vn -0.8797 0.4020 0.2539
vn -0.1301 -0.2548 0.9582
vn 0.2894 -0.0185 -0.9570
vn -0.6476 0.7619 0.0123
vn -0.9967 -0.0720 0.0368
vn -0.2087 -0.7900 0.5765
vn 0.2431 -0.9361 -0.2539
vn -0.2736 -0.0839 -0.9582
vn -0.2440 -0.9691 -0.0368
vn -0.8142 -0.0684 -0.5765
vn 0.1276 0.9192 0.3726
vn -0.5843 0.6476 -0.4890
vn -0.4591 0.6749 0.5776
vn -0.2637 0.5599 -0.7855
vn -0.7855 -0.2219 -0.5776
vn -0.4930 -0.7862 -0.3726
vn -0.8639 -0.1204 0.4890
vn -0.5619 -0.2594 0.7855
vn -0.2656 -0.1164 0.9570
vn 0.3480 0.9374 -0.0123
vn 0.0917 -0.9628 0.2539
vn 0.2858 0.0147 0.9582
vn -0.1286 0.2599 -0.9570
vn -0.3360 -0.9418 0.0123
vn 0.5607 -0.8272 0.0368
vn 0.7885 0.2142 0.5765
vn 0.6891 0.6786 -0.2539
vn 0.2094 -0.1950 -0.9582
vn 0.9612 0.2732 -0.0368
vn 0.4663 -0.6709 -0.5765
vn 0.0000 -0.9778 -0.2093
vn 0.8660 -0.5000 0.0000
vn 0.0000 -1.0000 0.0000
vn 0.8468 -0.4889 -0.2093
vn 0.8660 0.5000 0.0000
vn 0.8468 0.4889 -0.2093
vn 0.0000 1.0000 0.0000
vn 0.0000 0.9778 -0.2093
vn -0.8660 0.5000 0.0000
vn -0.8468 0.4889 -0.2093
vn 0.0000 0.6351 -0.7724
vn -0.5500 0.3175 -0.7724
vn -0.8660 -0.5000 0.0000
vn -0.8468 -0.4889 -0.2093
vn -0.6862 0.3962 0.6100
vn 0.5500 0.3175 -0.7724
vn -0.5500 -0.3175 -0.7724
vn 0.0000 -0.6351 -0.7724
vn 0.5500 -0.3175 -0.7724
vn 0.6862 -0.3962 0.6100
vn 0.0000 0.7924 0.6100
vn -0.6862 -0.3962 0.6100
vn 0.0000 -0.7924 0.6100
vn 0.6862 0.3962 0.6100
s 1
f 2/1/1 3/2/2 1/3/3
f 4/4/4 7/5/5 3/6/2
f 8/7/6 5/8/7 7/9/5
f 6/10/8 1/11/3 5/12/7
f 7/13/5 1/14/3 3/15/2
f 2/16/1 12/17/9 9/18/10
f 12/19/9 15/20/11 16/21/12
f 8/22/6 10/23/13 11/24/14
f 6/25/8 11/26/14 12/19/9
f 4/27/4 9/28/10 10/29/13
f 16/30/12 19/31/15 20/32/16
f 10/29/13 13/33/17 14/34/18
f 9/28/10 16/35/12 13/33/17
f 11/26/14 14/36/18 15/20/11
f 19/31/15 17/37/19 20/32/16
f 14/38/18 17/37/19 18/39/20
f 13/33/17 20/40/16 17/41/19
f 15/20/11 18/42/20 19/43/15
f 22/44/21 23/45/22 21/46/23
f 24/47/24 27/48/25 23/49/22
f 28/50/26 25/51/27 27/52/25
f 26/53/28 21/54/23 25/55/27
f 23/45/22 25/56/27 21/46/23
f 22/57/21 32/58/29 29/59/30
f 32/60/29 35/61/31 36/62/32
f 28/63/26 30/64/33 31/65/34
f 26/66/28 31/67/34 32/68/29
f 24/69/24 29/70/30 30/71/33
f 36/72/32 39/73/35 40/74/36
f 30/75/33 33/76/37 34/77/38
f 29/78/30 36/79/32 33/80/37
f 31/81/34 34/82/38 35/83/31
f 39/73/35 37/84/39 40/74/36
f 34/77/38 37/85/39 38/86/40
f 33/80/37 40/87/36 37/88/39
f 35/83/31 38/89/40 39/90/35
f 42/91/41 43/92/42 41/93/43
f 44/94/44 47/95/45 43/96/42
f 48/97/46 45/98/47 47/99/45
f 46/100/48 41/101/43 45/102/47
f 47/99/45 41/103/43 43/104/42
f 42/105/41 52/106/49 49/107/50
f 52/108/49 55/109/51 56/110/52
f 48/111/46 50/112/53 51/113/54
f 46/114/48 51/115/54 52/108/49
f 44/116/44 49/117/50 50/118/53
f 56/119/52 59/120/55 60/121/56
f 50/122/53 53/123/57 54/124/58
f 49/125/50 56/126/52 53/127/57
f 51/115/54 54/128/58 55/109/51
f 59/120/55 57/129/59 60/121/56
f 54/130/58 57/129/59 58/131/60
f 53/127/57 60/132/56 57/133/59
f 55/109/51 58/134/60 59/135/55
f 62/136/61 63/137/62 61/138/63
f 64/139/64 65/140/65 63/141/62
f 66/142/66 67/143/67 65/144/65
f 68/145/68 69/146/69 67/143/67
f 70/147/70 76/148/71 77/149/72
f 70/150/70 71/151/73 69/152/69
f 72/153/74 61/138/63 71/154/73
f 71/151/73 83/155/75 69/152/69
f 77/156/72 76/157/71 75/158/76
f 64/139/64 75/159/76 66/160/66
f 70/150/70 78/161/77 72/162/74
f 64/163/64 74/164/78 73/165/79
f 66/142/66 76/148/71 68/145/68
f 72/153/74 74/164/78 62/136/61
f 80/166/80 82/167/81 84/168/82
f 63/137/62 79/169/83 61/138/63
f 67/143/67 81/170/84 65/144/65
f 61/138/63 84/171/82 71/154/73
f 69/146/69 82/172/81 67/143/67
f 65/140/65 80/173/80 63/141/62
f 2/1/1 4/27/4 3/2/2
f 4/4/4 8/22/6 7/5/5
f 8/7/6 6/25/8 5/8/7
f 6/10/8 2/16/1 1/11/3
f 7/13/5 5/174/7 1/14/3
f 2/16/1 6/10/8 12/17/9
f 12/19/9 11/26/14 15/20/11
f 8/22/6 4/4/4 10/23/13
f 6/25/8 8/7/6 11/26/14
f 4/27/4 2/1/1 9/28/10
f 16/30/12 15/175/11 19/31/15
f 10/29/13 9/28/10 13/33/17
f 9/28/10 12/176/9 16/35/12
f 11/26/14 10/177/13 14/36/18
f 19/31/15 18/39/20 17/37/19
f 14/38/18 13/178/17 17/37/19
f 13/33/17 16/35/12 20/40/16
f 15/20/11 14/36/18 18/42/20
f 22/44/21 24/69/24 23/45/22
f 24/47/24 28/63/26 27/48/25
f 28/50/26 26/66/28 25/51/27
f 26/53/28 22/57/21 21/54/23
f 23/45/22 27/179/25 25/56/27
f 22/57/21 26/53/28 32/58/29
f 32/60/29 31/180/34 35/61/31
f 28/63/26 24/47/24 30/64/33
f 26/66/28 28/50/26 31/67/34
f 24/69/24 22/44/21 29/70/30
f 36/72/32 35/181/31 39/73/35
f 30/75/33 29/182/30 33/76/37
f 29/78/30 32/183/29 36/79/32
f 31/81/34 30/184/33 34/82/38
f 39/73/35 38/185/40 37/84/39
f 34/77/38 33/76/37 37/85/39
f 33/80/37 36/79/32 40/87/36
f 35/83/31 34/82/38 38/89/40
f 42/91/41 44/116/44 43/92/42
f 44/94/44 48/111/46 47/95/45
f 48/97/46 46/186/48 45/98/47
f 46/100/48 42/105/41 41/101/43
f 47/99/45 45/98/47 41/103/43
f 42/105/41 46/100/48 52/106/49
f 52/108/49 51/115/54 55/109/51
f 48/111/46 44/94/44 50/112/53
f 46/114/48 48/187/46 51/115/54
f 44/116/44 42/91/41 49/117/50
f 56/119/52 55/188/51 59/120/55
f 50/122/53 49/189/50 53/123/57
f 49/125/50 52/190/49 56/126/52
f 51/115/54 50/191/53 54/128/58
f 59/120/55 58/131/60 57/129/59
f 54/130/58 53/192/57 57/129/59
f 53/127/57 56/126/52 60/132/56
f 55/109/51 54/128/58 58/134/60
f 62/136/61 64/163/64 63/137/62
f 64/139/64 66/160/66 65/140/65
f 66/142/66 68/145/68 67/143/67
f 68/145/68 70/147/70 69/146/69
f 70/147/70 68/145/68 76/148/71
f 70/150/70 72/162/74 71/151/73
f 72/153/74 62/136/61 61/138/63
f 71/151/73 84/193/82 83/155/75
f 75/158/76 73/194/79 77/156/72
f 73/194/79 74/195/78 77/156/72
f 74/195/78 78/196/77 77/156/72
f 64/139/64 73/197/79 75/159/76
f 70/150/70 77/198/72 78/161/77
f 64/163/64 62/136/61 74/164/78
f 66/142/66 75/199/76 76/148/71
f 72/153/74 78/200/77 74/164/78
f 84/168/82 79/201/83 80/166/80
f 80/166/80 81/202/84 82/167/81
f 82/167/81 83/203/75 84/168/82
f 63/137/62 80/204/80 79/169/83
f 67/143/67 82/172/81 81/170/84
f 61/138/63 79/169/83 84/171/82
f 69/146/69 83/205/75 82/172/81
f 65/140/65 81/206/84 80/173/80
